<svg width="28" height="28" viewBox="0 0 28 28" fill="none" xmlns="http://www.w3.org/2000/svg">
<path d="M11.667 15.3334C11.667 15.7754 11.4914 16.1993 11.1788 16.5119C10.8663 16.8244 10.4424 17 10.0003 17C9.5583 17 9.13438 16.8244 8.82181 16.5119C8.50925 16.1993 8.33366 15.7754 8.33366 15.3334C8.33366 14.8913 8.50925 14.4674 8.82181 14.1548C9.13438 13.8423 9.5583 13.6667 10.0003 13.6667C10.4424 13.6667 10.8663 13.8423 11.1788 14.1548C11.4914 14.4674 11.667 14.8913 11.667 15.3334ZM18.0003 13.6667C17.5583 13.6667 17.1344 13.8423 16.8218 14.1548C16.5093 14.4674 16.3337 14.8913 16.3337 15.3334C16.3337 15.7754 16.5093 16.1993 16.8218 16.5119C17.1344 16.8244 17.5583 17 18.0003 17C18.4424 17 18.8663 16.8244 19.1788 16.5119C19.4914 16.1993 19.667 15.7754 19.667 15.3334C19.667 14.8913 19.4914 14.4674 19.1788 14.1548C18.8663 13.8423 18.4424 13.6667 18.0003 13.6667ZM27.3337 14C27.3337 21.36 21.3603 27.3334 14.0003 27.3334C6.64033 27.3334 0.666992 21.36 0.666992 14C0.666992 6.64002 6.64033 0.666687 14.0003 0.666687C21.3603 0.666687 27.3337 6.64002 27.3337 14ZM24.667 14C24.667 12.96 24.507 11.96 24.227 11.0134C23.2937 11.2134 22.3337 11.3334 21.3337 11.3334C19.3518 11.3338 17.3948 10.8924 15.6049 10.0413C13.8151 9.19023 12.2375 7.95085 10.987 6.41335C10.2869 8.10567 9.24619 9.6359 7.92957 10.9089C6.61296 12.182 5.04857 13.1706 3.33366 13.8134C3.34699 13.8667 3.33366 13.9334 3.33366 14C3.33366 19.88 8.12033 24.6667 14.0003 24.6667C19.8803 24.6667 24.667 19.88 24.667 14Z" fill="black"/>
</svg>
