<svg width="20" height="24" viewBox="0 0 20 24" fill="none" xmlns="http://www.w3.org/2000/svg">
<path d="M4.67494 6.11699C4.80165 5.37834 5.15553 4.70229 5.67171 4.17869C4.74936 2.43389 2.14538 2.70274 1.59604 4.59738C0.572067 4.8826 -0.145628 5.94704 0.025167 7.03986C0.587261 6.4599 1.36836 6.11699 2.21098 6.11699H4.67494Z" fill="black"/>
<path d="M17.897 4.59747C17.347 2.70175 14.7429 2.43496 13.8213 4.17878C14.3374 4.70237 14.6913 5.37838 14.8181 6.11708H17.282C18.1247 6.11708 18.9059 6.45998 19.4679 7.03976C19.6385 5.94685 18.9209 4.88273 17.897 4.59747V4.59747Z" fill="black"/>
<path d="M6.73246 3.21672C7.23373 2.46536 8.0054 1.92024 8.88582 1.7019C8.33657 -0.568049 5.12745 -0.566548 4.5791 1.7019C5.45957 1.9202 6.23119 2.46526 6.73246 3.21672Z" fill="black"/>
<path d="M7.62342 4.59744C6.89489 4.80918 6.32084 5.38679 6.11328 6.11705H13.3795C13.172 5.38679 12.5979 4.80918 11.8695 4.59744C11.24 2.48442 8.25206 2.48578 7.62342 4.59744Z" fill="black"/>
<path d="M17.2826 7.52393H2.21123C1.54559 7.52393 0.951048 7.92113 0.696544 8.53622C0.442416 9.15107 0.581931 9.85211 1.05197 10.3221L6.54178 15.812H12.9521L18.4421 10.3221C18.912 9.85207 19.0515 9.15107 18.7972 8.53594C18.5428 7.92118 17.9483 7.52393 17.2826 7.52393V7.52393Z" fill="black"/>
<path d="M12.2295 17.2189H7.26366L6.06538 20.8138C5.99391 21.0283 6.02988 21.264 6.16208 21.4475C6.29428 21.631 6.50662 21.7396 6.7327 21.7396H8.01704L7.57228 23.0739C7.44941 23.4425 7.64863 23.8409 8.01718 23.9637C8.38573 24.0866 8.78411 23.8874 8.90698 23.5188L9.50003 21.7397H9.99304L10.5861 23.5188C10.709 23.8874 11.1074 24.0866 11.4759 23.9637C11.8445 23.8408 12.0437 23.4425 11.9208 23.0739L11.4761 21.7396H12.7604C12.9865 21.7396 13.1989 21.6309 13.3311 21.4475C13.4633 21.2641 13.4993 21.0283 13.4278 20.8138L12.2295 17.2189Z" fill="black"/>
<path d="M12.7608 3.21677C13.2621 2.46531 14.0337 1.92029 14.9141 1.7019C14.3649 -0.568049 11.1558 -0.566548 10.6074 1.7019C11.4879 1.92024 12.2595 2.46531 12.7608 3.21677Z" fill="black"/>
</svg>
