<svg width="22" height="21" viewBox="0 0 22 21" fill="none" xmlns="http://www.w3.org/2000/svg">
<path d="M20.414 5.66675H1.58732C1.25491 5.66675 0.936123 5.7988 0.701077 6.03384C0.466032 6.26889 0.333984 6.58768 0.333984 6.92008V19.0801C0.333984 19.4125 0.466032 19.7313 0.701077 19.9663C0.936123 20.2014 1.25491 20.3334 1.58732 20.3334H20.414C20.7464 20.3334 21.0652 20.2014 21.3002 19.9663C21.5353 19.7313 21.6673 19.4125 21.6673 19.0801V6.92008C21.6673 6.58768 21.5353 6.26889 21.3002 6.03384C21.0652 5.7988 20.7464 5.66675 20.414 5.66675ZM15.1207 13.5534L8.60732 16.4601C8.5059 16.5057 8.39469 16.5252 8.28381 16.5168C8.17293 16.5084 8.0659 16.4725 7.97247 16.4122C7.87905 16.3519 7.80219 16.2692 7.74889 16.1716C7.69559 16.074 7.66755 15.9646 7.66732 15.8534V10.0401C7.66755 9.92889 7.69559 9.81952 7.74889 9.72193C7.80219 9.62434 7.87905 9.54163 7.97247 9.48133C8.0659 9.42103 8.17293 9.38506 8.28381 9.3767C8.39469 9.36833 8.5059 9.38782 8.60732 9.43341L15.1207 12.3334C15.239 12.3856 15.3395 12.471 15.4101 12.5793C15.4808 12.6876 15.5183 12.8141 15.5183 12.9434C15.5183 13.0727 15.4808 13.1992 15.4101 13.3075C15.3395 13.4158 15.239 13.5013 15.1207 13.5534Z" fill="black"/>
<path d="M19.0937 1.00004C19.0937 0.82323 19.0235 0.65366 18.8985 0.528636C18.7735 0.403612 18.6039 0.333374 18.4271 0.333374H3.76042C3.58361 0.333374 3.41404 0.403612 3.28901 0.528636C3.16399 0.65366 3.09375 0.82323 3.09375 1.00004V1.66671H19.0937V1.00004Z" fill="black"/>
<path d="M20.4147 3.66667C20.4147 3.48986 20.3445 3.32029 20.2195 3.19526C20.0944 3.07024 19.9249 3 19.748 3H2.41471C2.2379 3 2.06833 3.07024 1.94331 3.19526C1.81828 3.32029 1.74805 3.48986 1.74805 3.66667V4.33333H20.4147V3.66667Z" fill="black"/>
</svg>
