<svg width="16" height="16" viewBox="0 0 16 16" fill="none" xmlns="http://www.w3.org/2000/svg">
<path d="M10.8876 9.9739C10.8876 9.48882 10.6949 9.0236 10.3519 8.6806C10.0089 8.3376 9.54371 8.1449 9.05863 8.1449H2.65713C2.17204 8.1449 1.70683 8.3376 1.36383 8.6806C1.02082 9.0236 0.828125 9.48882 0.828125 9.9739V11.3456C0.828125 13.224 2.7376 14.5464 5.85788 14.5464C6.27763 14.5464 6.67452 14.5226 7.04855 14.4769L6.71659 14.1449C6.58912 14.0175 6.488 13.8663 6.41901 13.6998C6.35001 13.5333 6.3145 13.3549 6.3145 13.1746C6.3145 12.9944 6.35001 12.816 6.41901 12.6495C6.488 12.483 6.58912 12.3318 6.71659 12.2044L8.54559 10.3754C8.73744 10.1834 8.98191 10.0526 9.24809 9.99967C9.51427 9.94669 9.79018 9.97385 10.0409 10.0777C10.2916 10.1816 10.5059 10.3575 10.6566 10.5832C10.8074 10.8089 10.8877 11.0743 10.8876 11.3456V9.9739Z" fill="black"/>
<path d="M15.2827 11.5148C15.3997 11.1829 15.4592 10.8198 15.4592 10.4311V9.9739C15.4592 9.48882 15.2665 9.0236 14.9235 8.6806C14.5804 8.3376 14.1152 8.1449 13.6302 8.1449H11.1016L11.2268 8.29396C11.5872 8.75853 11.8012 9.34106 11.8012 9.9739V11.3456C11.8014 11.0745 11.882 10.8095 12.0327 10.5842C12.1835 10.3588 12.3976 10.1832 12.6481 10.0795C12.8986 9.97573 13.1743 9.94857 13.4402 10.0014C13.7061 10.0542 13.9504 10.1847 14.1423 10.3763L15.2827 11.5148Z" fill="black"/>
<path d="M9.05775 4.02973C9.05775 3.18084 8.72053 2.36671 8.12027 1.76646C7.52002 1.1662 6.70589 0.828979 5.857 0.828979C5.00811 0.828979 4.19399 1.1662 3.59373 1.76646C2.99347 2.36671 2.65625 3.18084 2.65625 4.02973C2.65625 4.87862 2.99347 5.69275 3.59373 6.293C4.19399 6.89326 5.00811 7.23048 5.857 7.23048C6.70589 7.23048 7.52002 6.89326 8.12027 6.293C8.72053 5.69275 9.05775 4.87862 9.05775 4.02973Z" fill="black"/>
<path d="M14.5452 4.94421C14.5452 4.33786 14.3043 3.75634 13.8755 3.32759C13.4468 2.89883 12.8653 2.65796 12.2589 2.65796C11.6526 2.65796 11.071 2.89883 10.6423 3.32759C10.2135 3.75634 9.97266 4.33786 9.97266 4.94421C9.97266 5.55056 10.2135 6.13208 10.6423 6.56083C11.071 6.98959 11.6526 7.23046 12.2589 7.23046C12.8653 7.23046 13.4468 6.98959 13.8755 6.56083C14.3043 6.13208 14.5452 5.55056 14.5452 4.94421Z" fill="black"/>
<path d="M9.19185 15.3275C9.27771 15.4134 9.39416 15.4616 9.51558 15.4616C9.63701 15.4616 9.75346 15.4134 9.83932 15.3275C9.92517 15.2416 9.97341 15.1252 9.97341 15.0038C9.97341 14.8823 9.92517 14.7659 9.83932 14.68L8.79038 13.632H13.8988L12.8498 14.68C12.764 14.7659 12.7158 14.8823 12.7158 15.0038C12.7158 15.1252 12.764 15.2416 12.8498 15.3275C12.9357 15.4134 13.0522 15.4616 13.1736 15.4616C13.295 15.4616 13.4115 15.4134 13.4973 15.3275L15.3263 13.4985C15.3689 13.456 15.4027 13.4056 15.4257 13.35C15.4488 13.2945 15.4607 13.2349 15.4607 13.1748C15.4607 13.1146 15.4488 13.0551 15.4257 12.9995C15.4027 12.944 15.3689 12.8935 15.3263 12.851L13.4973 11.022C13.4115 10.9362 13.295 10.8879 13.1736 10.8879C13.0522 10.8879 12.9357 10.9362 12.8498 11.022C12.764 11.1079 12.7158 11.2243 12.7158 11.3458C12.7158 11.4672 12.764 11.5836 12.8498 11.6695L13.8988 12.7175H8.79038L9.83932 11.6695C9.92517 11.5836 9.97341 11.4672 9.97341 11.3458C9.97341 11.2243 9.92517 11.1079 9.83932 11.022C9.75346 10.9362 9.63701 10.8879 9.51558 10.8879C9.39416 10.8879 9.27771 10.9362 9.19185 11.022L7.36285 12.851C7.32027 12.8935 7.28648 12.944 7.26343 12.9995C7.24038 13.0551 7.22852 13.1146 7.22852 13.1748C7.22852 13.2349 7.24038 13.2945 7.26343 13.35C7.28648 13.4056 7.32027 13.456 7.36285 13.4985L9.19185 15.3275Z" fill="black"/>
</svg>
